<?xml version="1.0" encoding="UTF-8"?>
<svg xmlns="http://www.w3.org/2000/svg" version="1.1" viewBox="0 0 943.2 1022.4">
  <defs>
    <style>
      .cls-1 {
        fill: #fff;
      }

      .cls-2 {
        fill: #d62d23;
      }

      .cls-3 {
        fill: #97d738;
      }
    </style>
  </defs>
  <!-- Generator: Adobe Illustrator 28.7.2, SVG Export Plug-In . SVG Version: 1.2.0 Build 154)  -->
  <g>
    <g id="Layer_1">
      <ellipse cx="471.6" cy="511.2" rx="414.71" ry="485.85" transform="translate(-203.64 344.51) rotate(-33.44)"/>
      <path class="cls-2" d="M407.89,83.72c68.94,0,139.92,19.59,205.27,56.65,67.97,38.55,127.72,94.99,172.79,163.23,33.71,51.05,57.87,106.15,71.79,163.76,13.37,55.33,16.79,110.59,10.16,164.26-6.56,53.09-22.63,101.9-47.75,145.07-25.73,44.21-59.97,80.62-101.76,108.22-27.03,17.85-56.55,31.48-87.76,40.51-30.41,8.8-62.48,13.26-95.33,13.26-68.94,0-139.92-19.59-205.27-56.65-67.97-38.55-127.72-94.99-172.79-163.23-33.71-51.05-57.87-106.14-71.79-163.76-13.37-55.33-16.79-110.59-10.16-164.26,6.56-53.09,22.63-101.9,47.75-145.07,25.73-44.21,59.97-80.62,101.76-108.22,27.03-17.85,56.55-31.48,87.76-40.51,30.41-8.8,62.48-13.26,95.33-13.26M407.89,45.72c-72.01,0-142.37,19.34-204.03,60.06C12.74,231.99-22.33,515.83,125.54,739.73c100.16,151.67,258.58,236.95,409.77,236.95,72.01,0,142.37-19.34,204.03-60.06,191.12-126.22,226.19-410.05,78.32-633.96-100.16-151.67-258.58-236.95-409.77-236.95h0Z"/>
      <path class="cls-3" d="M680.35,348.11l19.9,36.12,37.9,20.67-37.9,20.67-19.9,36.12-19.9-36.12-37.9-20.67,37.9-20.67,19.9-36.12M680.35,283.88l-27.15,49.28-15.54,28.2-29.96,16.34-49.89,27.21,49.89,27.21,29.96,16.34,15.54,28.2,27.15,49.28,27.15-49.28,15.54-28.2,29.96-16.34,49.89-27.21-49.89-27.21-29.96-16.34-15.54-28.2-27.15-49.28h0Z"/>
      <g>
        <path class="cls-1" d="M253.44,359.26h-3.11c-12.44,0-18.93-7.26-18.93-21.78,0-1.3,0-3.11.26-4.67h21.78v-55.74h-21.78v-49.26h-50.55v113.55c0,43.81,27.74,71.55,65.33,71.55,2.33,0,4.67,0,7-.26v-53.4Z"/>
        <path class="cls-1" d="M345.59,343.45v65.59h50.55v-82.7c0-35-16.85-52.89-43.03-52.89-11.41,0-19.7,4.67-26.7,11.41v-60.66h-49.26v184.84h49.26v-65.59c0-11.41,1.56-17.89,9.59-17.89s9.59,6.48,9.59,17.89Z"/>
        <path class="cls-1" d="M480.01,412.43c13.99-.87,27.23-5.73,37.96-13.89,13.41-10.2,21.83-23.12,26.22-40.46l-43.88-10.59c1.03,6.06-2.55,13.34-7.3,16.95-9.9,7.53-22.83,4.66-34.61-10.81-11.14-14.65-10.31-28.97-.2-36.66,8.25-6.28,16.91-6.02,22.25.99q.16.21.31.41l-17.54,13.34c-3.71,2.82-2.85,7.38,2.17,13.98,5.02,6.6,9.03,8.44,12.74,5.62l57.98-44.1c-.63-.83-1.1-1.44-1.73-2.27-27.62-36.32-69.55-40.91-100.7-17.21-14.44,10.99-23.87,27.28-26.44,46.17-2.52,18.53,2.37,36.95,13.36,51.4,14.12,18.57,35.87,28.74,59.4,27.13Z"/>
        <path class="cls-1" d="M480.02,566.37l-43.92-10.6c1.03,6.06-2.56,13.35-7.31,16.97-9.91,7.54-22.85,4.67-34.63-10.82-11.15-14.66-10.31-28.99-.2-36.68,8.26-6.28,16.93-6.03,22.27.99q.16.21.31.41l-17.55,13.35c-3.72,2.83-2.86,7.39,2.17,14s9.03,8.45,12.75,5.62l58.03-44.13c-.63-.83-1.1-1.45-1.73-2.27-27.64-36.34-69.6-40.94-100.78-17.22-14.46,10.99-23.89,27.3-26.46,46.2-2.52,18.54,2.38,36.98,13.37,51.44,14.14,18.59,35.89,28.76,59.44,27.15,14-.87,27.26-5.74,37.99-13.9,13.42-10.21,21.85-23.13,26.24-40.5Z"/>
        <path class="cls-1" d="M302.51,435.8h-50.59v113.64c0,43.85,27.76,71.61,65.38,71.61,2.34,0,4.67,0,7-.26v-53.45h-3.11c-12.45,0-18.94-7.26-18.94-21.79,0-1.3,0-3.11.26-4.67h21.79v-55.78h-21.79v-49.29Z"/>
        <path class="cls-1" d="M501.85,527.9c-3.11,11.93-3.11,23.09-3.11,33.99v55.26h49.29v-62.53c0-11.42,1.56-17.9,9.6-17.9s9.6,6.49,9.6,17.9v62.53h50.59v-55.26c0-19.98-.52-37.88-11.93-55-10.64-16.09-28.02-25.43-47.74-25.43-28.02,0-48.78,16.86-56.3,46.44Z"/>
        <path class="cls-1" d="M390.2,643.89h-50.6v113.66c0,43.86,27.77,71.62,65.39,71.62,2.34,0,4.67,0,7.01-.26v-53.46h-3.11c-12.46,0-18.94-7.27-18.94-21.8,0-1.3,0-3.11.26-4.67h21.8v-55.79h-21.8v-49.3Z"/>
        <path class="cls-1" d="M498.04,689.56c-23.35,0-44.63,11.42-57.87,31.4-7.78,11.68-11.68,24.91-11.68,38.4,0,18.68,7.27,35.81,20.5,49.04,13.23,13.23,30.36,20.5,49.04,20.5s36.07-7.27,49.3-20.5c13.23-13.23,20.5-30.36,20.5-49.04s-7.27-35.81-20.5-49.04c-13.49-13.49-31.14-20.76-49.3-20.76ZM498.04,777.26c-9.86,0-17.9-8.04-17.9-17.9s8.04-18.17,17.9-18.17,18.16,8.3,18.16,18.17-8.3,17.9-18.16,17.9Z"/>
        <path class="cls-1" d="M703.29,709.8c-13.23-13.23-30.62-20.24-49.04-20.24-31.92,0-56.83,18.68-65.91,50.6-3.37,11.16-3.63,22.32-3.63,33.47v101.19h49.3v-102.49c0-21.54,3.63-33.73,19.72-33.73,10.64,0,19.2,8.82,19.2,19.2,0,11.16-8.3,19.2-19.2,19.2-2.85,0-5.97-.78-9.86-2.34v51.38c3.89.26,7.53.52,10.64.52,38.15,0,68.51-30.1,68.51-68.77,0-18.16-7.01-35.29-19.72-48.01Z"/>
      </g>
    </g>
  </g>
</svg>